<svg version="1.1" id="Layer_1" xmlns="http://www.w3.org/2000/svg" xmlns:xlink="http://www.w3.org/1999/xlink" x="0px" y="0px"
	 width="100%" viewBox="0 0 480 180" enable-background="new 0 0 480 180" xml:space="preserve">
<path fill="#FDFEFF" opacity="1.000000" stroke="none" 
	d="
M308.000000,181.000000 
	C205.333374,181.000000 103.166740,181.000000 1.000082,181.000000 
	C1.000055,121.000061 1.000055,61.000114 1.000027,1.000131 
	C160.999893,1.000087 320.999786,1.000087 480.999756,1.000044 
	C480.999817,60.999863 480.999817,120.999725 480.999908,180.999786 
	C423.500000,181.000000 366.000000,181.000000 308.000000,181.000000 
M273.000000,157.000000 
	C273.000000,157.000000 273.013550,157.013031 273.903198,156.948166 
	C276.516876,156.825073 279.130554,156.701981 281.744232,156.578888 
	C281.719971,156.038422 281.695740,155.497955 281.671478,154.957489 
	C278.792877,154.957489 275.914246,154.957489 273.001129,155.000748 
	C273.001129,155.000748 273.050232,154.975037 272.992096,154.113342 
	C273.082153,152.107986 273.172211,150.102631 274.130585,148.079742 
	C276.924957,148.079742 279.719330,148.079742 282.513702,148.079742 
	C282.491241,147.668640 282.468781,147.257523 282.446320,146.846420 
	C278.781647,146.846420 275.116974,146.846420 271.125488,146.846420 
	C271.125488,153.256561 271.125488,159.629028 271.125488,166.036530 
	C275.167542,166.036530 279.010437,166.036530 282.853333,166.036530 
	C282.858337,165.652313 282.863342,165.268112 282.868347,164.883896 
	C279.680725,164.883896 276.493073,164.883896 273.099670,164.031097 
	C273.071594,161.690796 273.043518,159.350479 273.000000,157.000000 
M255.738754,157.752258 
	C256.987213,158.539307 258.235657,159.326370 258.999634,159.807999 
	C259.540070,156.679871 260.022827,153.885590 260.526428,150.970749 
	C258.636261,152.328629 256.836609,153.621506 255.083649,154.030762 
	C255.083649,151.500961 255.083649,148.971161 255.083649,146.441345 
	C254.647583,146.469345 254.211517,146.497330 253.775452,146.525314 
	C252.087967,152.078812 252.615417,164.305923 255.006760,166.718353 
	C255.006760,163.570328 255.006760,160.790329 255.738754,157.752258 
M351.818298,114.080650 
	C354.472900,114.194115 357.213135,114.489151 358.593964,110.350105 
	C358.663086,106.738464 358.827240,103.125381 358.772766,99.515602 
	C358.724670,96.328964 357.159393,96.347282 354.819702,98.913086 
	C354.805023,100.726860 355.007660,102.576164 354.718597,104.345085 
	C354.385254,106.384796 353.617889,108.353569 352.244415,110.174179 
	C351.174957,110.091225 350.105499,110.008263 349.106537,109.142593 
	C349.590790,105.785721 347.183014,105.001442 344.751862,104.157677 
	C343.114899,103.589546 341.534332,102.858795 339.928528,102.200798 
	C340.183685,101.588219 340.438843,100.975632 340.694000,100.363052 
	C342.322845,101.027176 343.913147,101.828087 345.595520,102.302521 
	C346.556793,102.573608 347.667969,102.313004 348.711670,102.291794 
	C348.467285,101.243614 348.552460,99.854492 347.902313,99.226097 
	C346.893280,98.250824 345.440460,97.388557 344.074677,97.196159 
	C340.566132,96.701866 337.097198,97.261047 336.257904,101.398415 
	C335.416595,105.545906 338.307739,106.809479 341.825012,107.313034 
	C342.992249,107.480148 344.082397,108.185768 346.554535,109.194977 
	C345.011078,109.107742 336.485596,108.625893 334.722473,108.526245 
	C336.829193,110.885590 337.880066,113.064362 339.526947,113.700691 
	C343.081421,115.074120 346.719055,114.916565 349.596344,111.230461 
	C350.070221,112.121582 350.544098,113.012695 351.818298,114.080650 
M342.493195,151.740997 
	C342.493195,156.722534 342.493195,161.704056 342.493195,166.685593 
	C343.185486,166.699539 343.877808,166.713486 344.570099,166.727417 
	C344.570099,161.802246 344.570099,156.877075 344.740906,151.195251 
	C344.513397,149.517136 344.285889,147.839035 344.058380,146.160919 
	C343.585968,146.084320 343.113556,146.007736 342.641144,145.931137 
	C338.778442,150.802582 337.634369,156.804489 335.830994,162.532257 
	C336.274048,162.720230 336.717102,162.908203 337.160187,163.096161 
	C338.827057,158.941879 340.493927,154.787582 342.493195,151.740997 
M418.233154,154.023148 
	C416.428772,149.609192 417.108215,148.314301 421.174652,148.274765 
	C422.966095,148.257355 424.756104,148.093750 426.546783,147.996521 
	C426.512390,147.389114 426.478027,146.781723 426.443665,146.174316 
	C422.852203,146.392639 418.269104,145.379272 415.983551,147.219498 
	C414.159668,148.687988 415.135345,153.633575 414.794739,157.974014 
	C417.483551,156.478760 418.775299,155.760406 420.844177,155.072189 
	C424.571442,155.041458 425.301056,157.465042 425.011719,160.437378 
	C424.442108,166.290024 419.897766,164.361832 416.367249,164.611725 
	C419.633209,167.216141 423.460419,166.547729 425.549622,164.287369 
	C427.073242,162.638977 427.179901,158.571350 426.337250,156.127335 
	C425.293243,153.099411 422.275726,151.872742 418.233154,154.023148 
M360.229340,146.897141 
	C357.197144,146.897141 354.164948,146.897141 351.410828,146.897141 
	C351.410828,153.931168 351.410828,160.168579 351.410828,166.405991 
	C351.782684,166.428925 352.154572,166.451874 352.526428,166.474808 
	C352.824280,163.896973 353.122162,161.319122 353.358490,159.273849 
	C356.214905,158.746979 358.581451,158.310455 361.624054,157.731171 
	C365.558014,153.389191 365.354645,150.287033 360.229340,146.897141 
M393.721649,157.868927 
	C397.117889,160.950195 400.514130,164.031448 403.910400,167.112717 
	C404.238312,166.782425 404.566254,166.452133 404.894196,166.121857 
	C401.967224,162.763351 399.040222,159.404846 396.124207,156.058929 
	C398.989624,152.738022 401.489746,149.840454 403.989899,146.942886 
	C403.678741,146.640045 403.367615,146.337204 403.056488,146.034363 
	C399.733002,148.964859 396.409485,151.895340 393.128571,153.952911 
	C393.128571,151.432236 393.128571,148.911560 393.128571,145.024048 
	C390.133270,150.236328 390.356750,164.046021 393.040466,166.798340 
	C393.040466,163.630539 393.040466,160.858795 393.721649,157.868927 
M169.639648,62.439720 
	C170.793274,63.568233 172.154327,64.550949 173.066727,65.849007 
	C178.811172,74.021652 184.438019,82.276840 190.147034,90.474602 
	C191.462555,92.363602 192.946823,94.135086 194.353455,95.960648 
	C194.692017,95.763435 195.030594,95.566223 195.369171,95.369011 
	C195.369171,74.452393 195.369171,53.535782 195.369171,32.275421 
	C210.671768,32.275421 225.636246,32.248219 240.600418,32.303909 
	C242.920761,32.312546 245.258484,32.579002 247.556015,32.934162 
	C257.222015,34.428364 261.997467,40.238018 262.202972,50.622974 
	C262.428650,62.024124 258.157349,68.222862 248.463974,70.098946 
	C244.916458,70.785530 241.256500,70.891045 237.130173,71.314796 
	C237.130173,83.997993 237.043198,96.611694 237.237122,109.221069 
	C237.262177,110.850197 238.552078,112.589317 239.577728,114.051918 
	C244.930359,121.684807 250.524933,129.152054 255.724396,136.885956 
	C257.312531,139.248230 258.849030,140.149948 261.684692,140.141357 
	C297.506592,140.032791 333.328827,140.060699 369.151001,140.034790 
	C370.593811,140.033737 372.036499,139.844650 373.516388,139.740585 
	C373.516388,132.349136 373.516388,125.313713 373.516388,118.011253 
	C370.958832,118.011253 368.803345,118.010361 366.647827,118.011391 
	C339.822906,118.024200 312.997894,118.065231 286.173248,117.988518 
	C284.352142,117.983307 281.782227,117.695625 280.836823,116.516235 
	C275.052887,109.300735 269.637573,101.789787 263.828308,94.014442 
	C266.120392,93.347229 267.854187,92.865845 269.573853,92.338234 
	C282.838745,88.268410 291.718262,79.637489 293.765350,65.878990 
	C295.066772,57.132183 295.092804,47.915871 293.929840,39.143539 
	C291.854218,23.486851 282.192108,13.645494 266.819458,10.209058 
	C259.902374,8.662796 252.657791,8.024785 245.553879,7.968103 
	C215.898346,7.731480 186.239807,7.872144 156.582367,7.874439 
	C154.048080,7.874635 151.513809,7.874464 147.911713,7.874464 
	C160.991974,14.633996 164.556274,22.983896 161.415344,38.140587 
	C137.015274,38.140587 112.520691,38.140587 88.026108,38.140587 
	C98.768448,41.751530 101.363724,49.965359 101.371597,59.900848 
	C101.384399,76.060043 101.603172,92.219437 101.555748,108.378212 
	C101.512749,123.032402 101.344467,137.688522 101.005623,152.338562 
	C100.835838,159.679169 97.285866,164.966263 90.236679,167.640472 
	C89.587227,167.886856 89.003090,168.305435 87.725334,169.009583 
	C108.145393,169.009583 127.686470,169.009583 147.227539,169.009583 
	C135.411987,164.926224 134.289032,155.271118 134.280899,145.035400 
	C134.260376,119.210426 134.257935,93.385445 134.271057,67.560471 
	C134.271866,65.961044 134.470184,64.361717 134.585114,62.634457 
	C138.038727,62.457729 141.004120,62.305984 144.890060,62.375843 
	C152.939499,62.302032 160.988922,62.228226 169.639648,62.439720 
M182.777588,149.738815 
	C186.520584,155.034454 190.385239,160.249832 193.954147,165.660309 
	C195.683762,168.282425 197.558838,169.417511 200.851547,169.339951 
	C211.828705,169.081345 222.815201,169.219131 233.798126,169.206970 
	C236.983795,169.203430 240.169479,169.206421 243.355148,169.206421 
	C225.165771,159.140823 216.847458,140.536682 203.688034,125.729591 
	C203.398117,127.933121 203.189590,129.517990 202.974518,131.152618 
	C200.909027,131.152618 199.053909,131.152618 197.029373,131.152618 
	C197.029373,122.347839 197.166931,114.030548 196.946930,105.722717 
	C196.879501,103.176468 195.832077,100.656166 195.271805,98.286240 
	C179.478882,103.449478 164.063614,99.763481 148.480530,101.535439 
	C160.011902,117.768326 171.168671,133.473892 182.777588,149.738815 
M216.854706,44.570103 
	C212.643341,42.844597 208.431992,41.119091 203.733185,39.193863 
	C203.733185,68.104904 203.733185,95.920921 203.733185,125.444672 
	C210.744675,121.681725 217.049332,119.044449 222.478012,115.177429 
	C228.049271,111.208878 231.273926,105.583328 230.767624,98.025528 
	C230.222946,89.895119 230.629120,81.700516 230.640518,73.533943 
	C230.642120,72.379791 230.327652,70.529411 230.888931,70.182899 
	C235.044571,67.617393 232.343094,64.619461 231.429642,62.000126 
	C228.874374,54.672703 224.153488,48.981430 216.854706,44.570103 
M290.184235,104.617119 
	C290.174744,106.948761 289.954865,109.307632 290.251526,111.599640 
	C290.384003,112.622971 291.554565,113.511932 292.253998,114.461884 
	C293.051392,113.614655 293.911560,112.815865 294.618805,111.899078 
	C294.955505,111.462601 295.000977,110.801476 295.084198,110.539024 
	C297.666382,112.032852 300.084686,113.431877 302.502991,114.830910 
	C302.801910,114.403313 303.100861,113.975723 303.399780,113.548126 
	C302.468842,112.088905 301.537933,110.629677 300.643188,109.227173 
	C301.698853,107.802574 302.779846,106.718193 303.411926,105.415916 
	C304.910553,102.328430 302.995117,97.919975 300.138184,97.882050 
	C296.880432,97.838829 293.618195,98.133423 290.182831,98.289131 
	C290.182831,100.075394 290.182831,101.892906 290.184235,104.617119 
M321.054016,104.508209 
	C320.030487,107.573715 319.006958,110.639214 317.983429,113.704720 
	C318.155518,114.421204 318.327637,115.137688 318.499756,115.854172 
	C323.684387,109.941040 328.784027,109.103981 334.211273,114.723869 
	C332.965149,108.645523 331.454224,103.330719 329.263885,98.312485 
	C328.218964,95.918549 324.048676,96.580643 322.917847,99.078522 
	C322.239990,100.575836 321.813629,102.187004 321.054016,104.508209 
M371.321014,113.268890 
	C375.821320,110.013802 377.125519,106.415825 375.306122,102.275017 
	C373.333649,97.785858 369.168060,96.345970 361.786652,97.755470 
	C361.786652,103.062363 361.786652,108.421753 361.786652,114.268555 
	C364.986450,114.015312 367.770630,113.794960 371.321014,113.268890 
M369.931244,163.387100 
	C374.147766,167.248016 378.137451,167.895096 381.976807,165.340683 
	C385.721710,162.849136 387.111359,156.413620 385.007629,151.308807 
	C383.586395,147.860077 380.970184,146.155228 377.281525,146.117142 
	C373.469604,146.077789 369.856964,147.396713 369.137207,151.231689 
	C368.447266,154.907898 369.324188,158.878174 369.931244,163.387100 
M306.974792,165.763565 
	C311.203857,167.541458 315.140839,167.376923 318.212280,163.597977 
	C321.263275,159.844193 321.047485,152.118881 317.794495,148.743271 
	C314.599579,145.427902 310.684937,145.361069 306.820496,147.289032 
	C303.002441,149.193817 301.195038,155.004730 302.909973,160.064133 
	C303.563141,161.991074 305.160339,163.598022 306.974792,165.763565 
M312.517639,97.103806 
	C307.277130,96.101318 305.651855,98.495926 306.367249,103.414948 
	C306.650787,105.364426 306.090240,107.463341 306.518921,109.357292 
	C306.919373,111.126503 308.121216,112.714325 308.970337,114.381981 
	C309.603516,112.728561 310.235443,111.074646 310.870758,109.422050 
	C311.043457,108.972824 311.226471,108.527580 311.159088,108.696548 
	C313.764435,107.653915 315.890778,106.802971 318.017151,105.952026 
	C317.837189,105.440613 317.657227,104.929199 317.477264,104.417778 
	C315.248016,104.044998 313.018738,103.672211 310.789490,103.299431 
	C310.789185,102.742012 310.788879,102.184601 310.788574,101.627190 
	C312.210327,101.398773 313.681458,101.325455 315.038391,100.893456 
	C316.147827,100.540260 317.121063,99.759186 318.154663,99.167793 
	C317.073212,98.484962 316.022522,97.743530 314.893585,97.151253 
	C314.501282,96.945450 313.915283,97.108910 312.517639,97.103806 
M287.714172,165.613358 
	C291.607941,165.984573 295.501740,166.355774 299.395508,166.726990 
	C299.430878,166.142990 299.466278,165.559006 299.501648,164.975021 
	C296.355530,164.701538 293.209412,164.428055 289.240356,164.083038 
	C289.240356,158.025482 289.240356,152.263565 289.240356,146.501648 
	C288.681366,146.523972 288.122375,146.546280 287.563385,146.568604 
	C287.563385,152.632294 287.563385,158.695999 287.714172,165.613358 
M324.960114,157.477875 
	C324.960114,160.331131 324.960114,163.184387 324.960114,166.037659 
	C325.563019,166.027313 326.165924,166.016968 326.768829,166.006607 
	C327.023071,161.136063 327.277283,156.265503 327.531525,151.394943 
	C327.809937,151.390472 328.088348,151.386002 328.366730,151.381531 
	C330.127502,155.965714 331.888275,160.549911 333.649048,165.134094 
	C334.223267,156.334167 329.290649,147.002945 324.961548,147.624283 
	C324.961548,150.556976 324.961548,153.530136 324.960114,157.477875 
z"/>
<path fill="#0298B3" opacity="1.000000" stroke="none" 
	d="
M143.969513,62.154236 
	C141.004120,62.305984 138.038727,62.457729 134.585114,62.634457 
	C134.470184,64.361717 134.271866,65.961044 134.271057,67.560471 
	C134.257935,93.385445 134.260376,119.210426 134.280899,145.035400 
	C134.289032,155.271118 135.411987,164.926224 147.227539,169.009583 
	C127.686470,169.009583 108.145393,169.009583 87.725334,169.009583 
	C89.003090,168.305435 89.587227,167.886856 90.236679,167.640472 
	C97.285866,164.966263 100.835838,159.679169 101.005623,152.338562 
	C101.344467,137.688522 101.512749,123.032402 101.555748,108.378212 
	C101.603172,92.219437 101.384399,76.060043 101.371597,59.900848 
	C101.363724,49.965359 98.768448,41.751530 88.026108,38.140587 
	C112.520691,38.140587 137.015274,38.140587 161.415344,38.140587 
	C164.556274,22.983896 160.991974,14.633996 147.911713,7.874464 
	C151.513809,7.874464 154.048080,7.874635 156.582367,7.874439 
	C186.239807,7.872144 215.898346,7.731480 245.553879,7.968103 
	C252.657791,8.024785 259.902374,8.662796 266.819458,10.209058 
	C282.192108,13.645494 291.854218,23.486851 293.929840,39.143539 
	C295.092804,47.915871 295.066772,57.132183 293.765350,65.878990 
	C291.718262,79.637489 282.838745,88.268410 269.573853,92.338234 
	C267.854187,92.865845 266.120392,93.347229 263.828308,94.014442 
	C269.637573,101.789787 275.052887,109.300735 280.836823,116.516235 
	C281.782227,117.695625 284.352142,117.983307 286.173248,117.988518 
	C312.997894,118.065231 339.822906,118.024200 366.647827,118.011391 
	C368.803345,118.010361 370.958832,118.011253 373.516388,118.011253 
	C373.516388,125.313713 373.516388,132.349136 373.516388,139.740585 
	C372.036499,139.844650 370.593811,140.033737 369.151001,140.034790 
	C333.328827,140.060699 297.506592,140.032791 261.684692,140.141357 
	C258.849030,140.149948 257.312531,139.248230 255.724396,136.885956 
	C250.524933,129.152054 244.930359,121.684807 239.577728,114.051918 
	C238.552078,112.589317 237.262177,110.850197 237.237122,109.221069 
	C237.043198,96.611694 237.130173,83.997993 237.130173,71.314796 
	C241.256500,70.891045 244.916458,70.785530 248.463974,70.098946 
	C258.157349,68.222862 262.428650,62.024124 262.202972,50.622974 
	C261.997467,40.238018 257.222015,34.428364 247.556015,32.934162 
	C245.258484,32.579002 242.920761,32.312546 240.600418,32.303909 
	C225.636246,32.248219 210.671768,32.275421 195.369171,32.275421 
	C195.369171,53.535782 195.369171,74.452393 195.369171,95.369011 
	C195.030594,95.566223 194.692017,95.763435 194.353455,95.960648 
	C192.946823,94.135086 191.462555,92.363602 190.147034,90.474602 
	C184.438019,82.276840 178.811172,74.021652 173.066727,65.849007 
	C172.154327,64.550949 170.793274,63.568233 169.064331,61.970768 
	C162.471634,61.335175 156.454071,61.053932 150.436951,61.062977 
	C148.280594,61.066219 146.125290,61.770123 143.969513,62.154236 
z"/>
<path fill="#0399B3" opacity="1.000000" stroke="none" 
	d="
M182.551514,149.459137 
	C171.168671,133.473892 160.011902,117.768326 148.480530,101.535439 
	C164.063614,99.763481 179.478882,103.449478 195.271805,98.286240 
	C195.832077,100.656166 196.879501,103.176468 196.946930,105.722717 
	C197.166931,114.030548 197.029373,122.347839 197.029373,131.152618 
	C199.053909,131.152618 200.909027,131.152618 202.974518,131.152618 
	C203.189590,129.517990 203.398117,127.933121 203.688034,125.729591 
	C216.847458,140.536682 225.165771,159.140823 243.355148,169.206421 
	C240.169479,169.206421 236.983795,169.203430 233.798126,169.206970 
	C222.815201,169.219131 211.828705,169.081345 200.851547,169.339951 
	C197.558838,169.417511 195.683762,168.282425 193.954147,165.660309 
	C190.385239,160.249832 186.520584,155.034454 182.551514,149.459137 
z"/>
<path fill="#079BB5" opacity="1.000000" stroke="none" 
	d="
M217.171738,44.757858 
	C224.153488,48.981430 228.874374,54.672703 231.429642,62.000126 
	C232.343094,64.619461 235.044571,67.617393 230.888931,70.182899 
	C230.327652,70.529411 230.642120,72.379791 230.640518,73.533943 
	C230.629120,81.700516 230.222946,89.895119 230.767624,98.025528 
	C231.273926,105.583328 228.049271,111.208878 222.478012,115.177429 
	C217.049332,119.044449 210.744675,121.681725 203.733185,125.444672 
	C203.733185,95.920921 203.733185,68.104904 203.733185,39.193863 
	C208.431992,41.119091 212.643341,42.844597 217.171738,44.757858 
z"/>
<path fill="#4FB7C6" opacity="1.000000" stroke="none" 
	d="
M290.183533,104.163765 
	C290.182831,101.892906 290.182831,100.075394 290.182831,98.289131 
	C293.618195,98.133423 296.880432,97.838829 300.138184,97.882050 
	C302.995117,97.919975 304.910553,102.328430 303.411926,105.415916 
	C302.779846,106.718193 301.698853,107.802574 300.643188,109.227173 
	C301.537933,110.629677 302.468842,112.088905 303.399780,113.548126 
	C303.100861,113.975723 302.801910,114.403313 302.502991,114.830910 
	C300.084686,113.431877 297.666382,112.032852 295.084198,110.539024 
	C295.000977,110.801476 294.955505,111.462601 294.618805,111.899078 
	C293.911560,112.815865 293.051392,113.614655 292.253998,114.461884 
	C291.554565,113.511932 290.384003,112.622971 290.251526,111.599640 
	C289.954865,109.307632 290.174744,106.948761 290.183533,104.163765 
z"/>
<path fill="#4BB7C8" opacity="1.000000" stroke="none" 
	d="
M321.164124,104.127609 
	C321.813629,102.187004 322.239990,100.575836 322.917847,99.078522 
	C324.048676,96.580643 328.218964,95.918549 329.263885,98.312485 
	C331.454224,103.330719 332.965149,108.645523 334.211273,114.723869 
	C328.784027,109.103981 323.684387,109.941040 318.499756,115.854172 
	C318.327637,115.137688 318.155518,114.421204 317.983429,113.704720 
	C319.006958,110.639214 320.030487,107.573715 321.164124,104.127609 
z"/>
<path fill="#3CB4C6" opacity="1.000000" stroke="none" 
	d="
M370.937927,113.421753 
	C367.770630,113.794960 364.986450,114.015312 361.786652,114.268555 
	C361.786652,108.421753 361.786652,103.062363 361.786652,97.755470 
	C369.168060,96.345970 373.333649,97.785858 375.306122,102.275017 
	C377.125519,106.415825 375.821320,110.013802 370.937927,113.421753 
M368.824982,110.080284 
	C372.487396,109.315399 372.733673,106.315796 371.681915,103.967010 
	C370.932556,102.293510 368.337494,101.446495 366.566101,100.230652 
	C366.146240,100.591805 365.726379,100.952950 365.306519,101.314102 
	C365.306519,103.578278 365.053558,105.886177 365.433502,108.084686 
	C365.581238,108.939484 367.156982,109.547493 368.824982,110.080284 
z"/>
<path fill="#44B3C4" opacity="1.000000" stroke="none" 
	d="
M348.992889,110.974243 
	C346.719055,114.916565 343.081421,115.074120 339.526947,113.700691 
	C337.880066,113.064362 336.829193,110.885590 334.722473,108.526245 
	C336.485596,108.625893 345.011078,109.107742 346.554535,109.194977 
	C344.082397,108.185768 342.992249,107.480148 341.825012,107.313034 
	C338.307739,106.809479 335.416595,105.545906 336.257904,101.398415 
	C337.097198,97.261047 340.566132,96.701866 344.074677,97.196159 
	C345.440460,97.388557 346.893280,98.250824 347.902313,99.226097 
	C348.552460,99.854492 348.467285,101.243614 348.711670,102.291794 
	C347.667969,102.313004 346.556793,102.573608 345.595520,102.302521 
	C343.913147,101.828087 342.322845,101.027176 340.694000,100.363052 
	C340.438843,100.975632 340.183685,101.588219 339.928528,102.200798 
	C341.534332,102.858795 343.114899,103.589546 344.751862,104.157677 
	C347.183014,105.001442 349.590790,105.785721 349.043335,109.795570 
	C348.984375,110.623779 348.988647,110.799011 348.992889,110.974243 
z"/>
<path fill="#2CA5C2" opacity="1.000000" stroke="none" 
	d="
M369.721863,163.053162 
	C369.324188,158.878174 368.447266,154.907898 369.137207,151.231689 
	C369.856964,147.396713 373.469604,146.077789 377.281525,146.117142 
	C380.970184,146.155228 383.586395,147.860077 385.007629,151.308807 
	C387.111359,156.413620 385.721710,162.849136 381.976807,165.340683 
	C378.137451,167.895096 374.147766,167.248016 369.721863,163.053162 
M383.340668,157.378616 
	C382.986542,150.169662 380.230438,147.004242 375.335052,148.383896 
	C370.480347,149.752075 370.544983,153.783737 370.709656,157.697006 
	C370.865326,161.396591 372.234192,164.201935 376.490021,164.450302 
	C380.870026,164.705948 382.920502,162.416489 383.340668,157.378616 
z"/>
<path fill="#279EB9" opacity="1.000000" stroke="none" 
	d="
M306.651062,165.557190 
	C305.160339,163.598022 303.563141,161.991074 302.909973,160.064133 
	C301.195038,155.004730 303.002441,149.193817 306.820496,147.289032 
	C310.684937,145.361069 314.599579,145.427902 317.794495,148.743271 
	C321.047485,152.118881 321.263275,159.844193 318.212280,163.597977 
	C315.140839,167.376923 311.203857,167.541458 306.651062,165.557190 
M314.774261,163.801605 
	C318.769470,160.496323 318.585938,156.200439 317.065887,151.989792 
	C315.474335,147.580948 308.399994,146.391449 306.679962,150.365112 
	C305.303619,153.544693 305.207794,157.816879 306.015594,161.258667 
	C306.899689,165.025482 310.715057,164.756287 314.774261,163.801605 
z"/>
<path fill="#4BB7C8" opacity="1.000000" stroke="none" 
	d="
M312.967712,97.103760 
	C313.915283,97.108910 314.501282,96.945450 314.893585,97.151253 
	C316.022522,97.743530 317.073212,98.484962 318.154663,99.167801 
	C317.121063,99.759186 316.147827,100.540260 315.038391,100.893456 
	C313.681458,101.325455 312.210327,101.398773 310.788574,101.627190 
	C310.788879,102.184601 310.789185,102.742012 310.789490,103.299431 
	C313.018738,103.672211 315.248016,104.044998 317.477264,104.417778 
	C317.657227,104.929199 317.837189,105.440613 318.017151,105.952026 
	C315.890778,106.802971 313.764435,107.653915 311.159088,108.696548 
	C311.226471,108.527580 311.043457,108.972824 310.870758,109.422050 
	C310.235443,111.074646 309.603516,112.728561 308.970337,114.381981 
	C308.121216,112.714325 306.919373,111.126503 306.518921,109.357292 
	C306.090240,107.463341 306.650787,105.364426 306.367249,103.414948 
	C305.651855,98.495926 307.277130,96.101318 312.967712,97.103760 
z"/>
<path fill="#1D8DB4" opacity="1.000000" stroke="none" 
	d="
M287.638794,165.186523 
	C287.563385,158.695999 287.563385,152.632294 287.563385,146.568604 
	C288.122375,146.546280 288.681366,146.523972 289.240356,146.501648 
	C289.240356,152.263565 289.240356,158.025482 289.240356,164.083038 
	C293.209412,164.428055 296.355530,164.701538 299.501648,164.975021 
	C299.466278,165.559006 299.430878,166.142990 299.395508,166.726990 
	C295.501740,166.355774 291.607941,165.984573 287.638794,165.186523 
z"/>
<path fill="#1595B0" opacity="1.000000" stroke="none" 
	d="
M324.960815,156.990601 
	C324.961548,153.530136 324.961548,150.556976 324.961548,147.624283 
	C329.290649,147.002945 334.223267,156.334167 333.649048,165.134094 
	C331.888275,160.549911 330.127502,155.965714 328.366730,151.381531 
	C328.088348,151.386002 327.809937,151.390472 327.531525,151.394943 
	C327.277283,156.265503 327.023071,161.136063 326.768829,166.006607 
	C326.165924,166.016968 325.563019,166.027313 324.960114,166.037659 
	C324.960114,163.184387 324.960114,160.331131 324.960815,156.990601 
z"/>
<path fill="#0B8CA9" opacity="1.000000" stroke="none" 
	d="
M273.305450,164.883896 
	C276.493073,164.883896 279.680725,164.883896 282.868347,164.883896 
	C282.863342,165.268112 282.858337,165.652313 282.853333,166.036530 
	C279.010437,166.036530 275.167542,166.036530 271.125488,166.036530 
	C271.125488,159.629028 271.125488,153.256561 271.125488,146.846420 
	C275.116974,146.846420 278.781647,146.846420 282.446320,146.846420 
	C282.468781,147.257523 282.491241,147.668640 282.513702,148.079742 
	C279.719330,148.079742 276.924957,148.079742 273.357422,148.275940 
	C272.739594,150.639786 272.894897,152.807404 273.050232,154.975037 
	C273.050232,154.975037 273.001129,155.000748 272.996552,155.321411 
	C272.999176,156.099060 273.006348,156.556046 273.013550,157.013031 
	C273.013550,157.013031 273.000000,157.000000 272.706970,157.261414 
	C272.711121,159.976532 273.008301,162.430206 273.305450,164.883896 
z"/>
<path fill="#2EA4C0" opacity="1.000000" stroke="none" 
	d="
M393.085999,154.825836 
	C396.409485,151.895340 399.733002,148.964859 403.056488,146.034363 
	C403.367615,146.337204 403.678741,146.640045 403.989899,146.942886 
	C401.489746,149.840454 398.989624,152.738022 396.124207,156.058929 
	C399.040222,159.404846 401.967224,162.763351 404.894196,166.121857 
	C404.566254,166.452133 404.238312,166.782425 403.910400,167.112717 
	C400.514130,164.031448 397.117889,160.950195 393.356262,157.570374 
	C393.022583,156.456497 393.054291,155.641159 393.085999,154.825836 
z"/>
<path fill="#129BB7" opacity="1.000000" stroke="none" 
	d="
M360.948029,157.873932 
	C358.581451,158.310455 356.214905,158.746979 353.358490,159.273849 
	C353.122162,161.319122 352.824280,163.896973 352.526428,166.474808 
	C352.154572,166.451874 351.782684,166.428925 351.410828,166.405991 
	C351.410828,160.168579 351.410828,153.931168 351.410828,146.897141 
	C354.164948,146.897141 357.197144,146.897141 360.397827,147.288025 
	C360.212799,147.907822 359.859283,148.136765 359.100494,148.328125 
	C356.958099,148.290543 355.220978,148.290543 353.381226,148.290543 
	C353.381226,151.388672 353.381226,154.031403 353.381226,156.795456 
	C355.430725,156.795456 357.059631,156.795456 359.004700,156.872131 
	C359.863220,157.257172 360.405640,157.565552 360.948029,157.873932 
z"/>
<path fill="#279EB9" opacity="1.000000" stroke="none" 
	d="
M418.984100,153.970261 
	C422.275726,151.872742 425.293243,153.099411 426.337250,156.127335 
	C427.179901,158.571350 427.073242,162.638977 425.549622,164.287369 
	C423.460419,166.547729 419.633209,167.216141 416.367249,164.611725 
	C419.897766,164.361832 424.442108,166.290024 425.011719,160.437378 
	C425.301056,157.465042 424.571442,155.041458 420.222107,154.935242 
	C419.394745,154.522293 419.189423,154.246277 418.984100,153.970261 
z"/>
<path fill="#42ABC6" opacity="1.000000" stroke="none" 
	d="
M418.608643,153.996704 
	C419.189423,154.246277 419.394745,154.522293 419.833557,154.920166 
	C418.775299,155.760406 417.483551,156.478760 414.794739,157.974014 
	C415.135345,153.633575 414.159668,148.687988 415.983551,147.219498 
	C418.269104,145.379272 422.852203,146.392639 426.443665,146.174316 
	C426.478027,146.781723 426.512390,147.389114 426.546783,147.996521 
	C424.756104,148.093750 422.966095,148.257355 421.174652,148.274765 
	C417.108215,148.314301 416.428772,149.609192 418.608643,153.996704 
z"/>
<path fill="#279EB9" opacity="1.000000" stroke="none" 
	d="
M342.160797,150.633286 
	C340.493927,154.787582 338.827057,158.941879 337.160187,163.096161 
	C336.717102,162.908203 336.274048,162.720230 335.830994,162.532257 
	C337.634369,156.804489 338.778442,150.802582 342.641144,145.931137 
	C343.113556,146.007736 343.585968,146.084320 344.058380,146.160919 
	C344.285889,147.839035 344.513397,149.517136 344.435364,151.546478 
	C343.473480,151.476227 342.817139,151.054749 342.160797,150.633286 
z"/>
<path fill="#38A7BA" opacity="1.000000" stroke="none" 
	d="
M342.326996,151.187134 
	C342.817139,151.054749 343.473480,151.476227 344.349976,151.924805 
	C344.570099,156.877075 344.570099,161.802246 344.570099,166.727417 
	C343.877808,166.713486 343.185486,166.699539 342.493195,166.685593 
	C342.493195,161.704056 342.493195,156.722534 342.326996,151.187134 
z"/>
<path fill="#44B3C4" opacity="1.000000" stroke="none" 
	d="
M358.201294,111.069786 
	C357.213135,114.489151 354.472900,114.194115 351.454803,113.689423 
	C351.740540,112.316513 352.389771,111.334831 353.039032,110.353149 
	C353.617889,108.353569 354.385254,106.384796 354.718597,104.345085 
	C355.007660,102.576164 354.805023,100.726860 355.276428,98.654106 
	C356.165588,100.421837 356.627533,102.442833 357.022552,104.476814 
	C357.448120,106.668129 357.811035,108.871613 358.201294,111.069786 
z"/>
<path fill="#1595B0" opacity="1.000000" stroke="none" 
	d="
M255.006760,158.010345 
	C255.006760,160.790329 255.006760,163.570328 255.006760,166.718353 
	C252.615417,164.305923 252.087967,152.078812 253.775452,146.525314 
	C254.211517,146.497330 254.647583,146.469345 255.083649,146.441345 
	C255.083649,148.971161 255.083649,151.500961 255.033813,154.859253 
	C254.991577,156.461960 254.999176,157.236145 255.006760,158.010345 
z"/>
<path fill="#1D9EBB" opacity="1.000000" stroke="none" 
	d="
M393.107300,154.389374 
	C393.054291,155.641159 393.022583,156.456497 393.015686,157.679443 
	C393.040466,160.858795 393.040466,163.630539 393.040466,166.798340 
	C390.356750,164.046021 390.133270,150.236328 393.128571,145.024048 
	C393.128571,148.911560 393.128571,151.432236 393.107300,154.389374 
z"/>
<path fill="#57C0CD" opacity="1.000000" stroke="none" 
	d="
M358.397644,110.709946 
	C357.811035,108.871613 357.448120,106.668129 357.022552,104.476814 
	C356.627533,102.442833 356.165588,100.421837 355.388062,98.207748 
	C357.159393,96.347282 358.724670,96.328964 358.772766,99.515602 
	C358.827240,103.125381 358.663086,106.738464 358.397644,110.709946 
z"/>
<path fill="#2EA4C0" opacity="1.000000" stroke="none" 
	d="
M255.372757,157.881302 
	C254.999176,157.236145 254.991577,156.461960 255.010468,155.301071 
	C256.836609,153.621506 258.636261,152.328629 260.526428,150.970749 
	C260.022827,153.885590 259.540070,156.679871 258.999634,159.807999 
	C258.235657,159.326370 256.987213,158.539307 255.372757,157.881302 
z"/>
<path fill="#2EA4C0" opacity="1.000000" stroke="none" 
	d="
M361.286041,157.802551 
	C360.405640,157.565552 359.863220,157.257172 359.306824,156.660767 
	C363.099365,153.519165 363.143127,151.873886 359.505768,148.365723 
	C359.859283,148.136765 360.212799,147.907822 360.748718,147.419983 
	C365.354645,150.287033 365.558014,153.389191 361.286041,157.802551 
z"/>
<path fill="#0B8CA9" opacity="1.000000" stroke="none" 
	d="
M144.429779,62.265038 
	C146.125290,61.770123 148.280594,61.066219 150.436951,61.062977 
	C156.454071,61.053932 162.471634,61.335175 168.763687,61.828117 
	C160.988922,62.228226 152.939499,62.302032 144.429779,62.265038 
z"/>
<path fill="#2EA4C0" opacity="1.000000" stroke="none" 
	d="
M273.458374,156.980591 
	C273.006348,156.556046 272.999176,156.099060 273.013794,155.299774 
	C275.914246,154.957489 278.792877,154.957489 281.671478,154.957489 
	C281.695740,155.497955 281.719971,156.038422 281.744232,156.578888 
	C279.130554,156.701981 276.516876,156.825073 273.458374,156.980591 
z"/>
<path fill="#57C0CD" opacity="1.000000" stroke="none" 
	d="
M352.641724,110.263664 
	C352.389771,111.334831 351.740540,112.316513 351.054657,113.601006 
	C350.544098,113.012695 350.070221,112.121582 349.294617,111.102356 
	C348.988647,110.799011 348.984375,110.623779 349.008087,110.186928 
	C350.105499,110.008263 351.174957,110.091225 352.641724,110.263664 
z"/>
<path fill="#2EA4C0" opacity="1.000000" stroke="none" 
	d="
M273.202576,164.457489 
	C273.008301,162.430206 272.711121,159.976532 272.714691,157.266510 
	C273.043518,159.350479 273.071594,161.690796 273.202576,164.457489 
z"/>
<path fill="#2EA4C0" opacity="1.000000" stroke="none" 
	d="
M273.021179,154.544189 
	C272.894897,152.807404 272.739594,150.639786 272.923279,148.284714 
	C273.172211,150.102631 273.082153,152.107986 273.021179,154.544189 
z"/>
<path fill="#E8F5F8" opacity="1.000000" stroke="none" 
	d="
M368.453613,110.174103 
	C367.156982,109.547493 365.581238,108.939484 365.433502,108.084686 
	C365.053558,105.886177 365.306519,103.578278 365.306519,101.314102 
	C365.726379,100.952950 366.146240,100.591805 366.566101,100.230652 
	C368.337494,101.446495 370.932556,102.293510 371.681915,103.967010 
	C372.733673,106.315796 372.487396,109.315399 368.453613,110.174103 
z"/>
<path fill="#F5FBFD" opacity="1.000000" stroke="none" 
	d="
M383.284546,157.810944 
	C382.920502,162.416489 380.870026,164.705948 376.490021,164.450302 
	C372.234192,164.201935 370.865326,161.396591 370.709656,157.697006 
	C370.544983,153.783737 370.480347,149.752075 375.335052,148.383896 
	C380.230438,147.004242 382.986542,150.169662 383.284546,157.810944 
z"/>
<path fill="#F5FBFD" opacity="1.000000" stroke="none" 
	d="
M314.379333,163.950867 
	C310.715057,164.756287 306.899689,165.025482 306.015594,161.258667 
	C305.207794,157.816879 305.303619,153.544693 306.679962,150.365112 
	C308.399994,146.391449 315.474335,147.580948 317.065887,151.989792 
	C318.585938,156.200439 318.769470,160.496323 314.379333,163.950867 
z"/>
<path fill="#F0F9FC" opacity="1.000000" stroke="none" 
	d="
M359.100494,148.328125 
	C363.143127,151.873886 363.099365,153.519165 358.990662,156.584106 
	C357.059631,156.795456 355.430725,156.795456 353.381226,156.795456 
	C353.381226,154.031403 353.381226,151.388672 353.381226,148.290543 
	C355.220978,148.290543 356.958099,148.290543 359.100494,148.328125 
z"/>
</svg>